<svg xmlns="http://www.w3.org/2000/svg" version="1.1" xmlns:xlink="http://www.w3.org/1999/xlink" xmlns:svgjs="http://svgjs.dev/svgjs" width="1500" height="587" viewBox="0 0 1500 587"><g transform="matrix(1,0,0,1,-0.9090909090909918,-1.8844539783518144)"><svg viewBox="0 0 396 155" data-background-color="#444444" preserveAspectRatio="xMidYMid meet" height="587" width="1500" xmlns="http://www.w3.org/2000/svg" xmlns:xlink="http://www.w3.org/1999/xlink"><g id="tight-bounds" transform="matrix(1,0,0,1,0.2400000000000091,0.4975985803143601)"><svg viewBox="0 0 395.52 154.00480283937128" height="154.00480283937128" width="395.52"><g><svg viewBox="0 0 397.49759999999986 154.7748268535681" height="154.00480283937128" width="395.52"><g><svg viewBox="0 0 397.49759999999986 154.7748268535681" height="154.7748268535681" width="397.49759999999986"><g id="textblocktransform"><svg viewBox="0 0 397.49759999999986 154.7748268535681" height="154.7748268535681" width="397.49759999999986" id="textblock"><g><rect width="397.49759999999986" height="7.786113588861017" x="0" y="95.51082911850905" fill="#ffffff" opacity="1" stroke-width="0" stroke="transparent" fill-opacity="1" class="rect-yte-0" data-fill-palette-color="primary" rx="1%" id="yte-0" data-palette-color="#ffffff"></rect></g><g transform="matrix(1,0,0,1,0.9887999999999693,0)"><svg viewBox="0 0 395.5199999999999 86.33870578084554" height="86.33870578084554" width="395.5199999999999"><g transform="matrix(1,0,0,1,0,0)"><svg width="395.5199999999999" viewBox="-0.35 -37.1 173.84 37.95" height="86.33870578084554" data-palette-color="#ffffff"><path d="M12.55 0.85Q11.85-1.65 9.33-10.15 6.8-18.65 4.2-26.8L4.2-26.8Q3.75-28.25 2.65-28.93 1.55-29.6-0.3-29.65L-0.3-29.65-0.35-29.85-0.05-32Q0.6-32 2.3-31.93 4-31.85 5.6-31.85L5.6-31.85Q7.8-31.85 10-32.08 12.2-32.3 12.85-32.4L12.85-32.4 13-32.05 12.8-30.1Q10.25-29.9 9.38-29.5 8.5-29.1 8.5-28.05L8.5-28.05Q8.5-27.2 9.88-22.03 11.25-16.85 12.73-11.65 14.2-6.45 14.65-4.85L14.65-4.85 14.95-4.85 22-24.05 21.1-26.8Q20.6-28.25 19.55-28.9 18.5-29.55 16.6-29.65L16.6-29.65 16.5-29.85 16.85-32Q17.5-32 19.2-31.93 20.9-31.85 22.5-31.85L22.5-31.85Q24.4-31.85 26.73-32.08 29.05-32.3 29.75-32.4L29.75-32.4 29.9-32.05 29.7-30.1Q27.1-29.9 26.23-29.5 25.35-29.1 25.35-28L25.35-28Q25.35-26.95 27.95-17.6 30.55-8.25 31.55-4.85L31.55-4.85 31.85-4.85Q31.95-5.15 32.08-5.48 32.2-5.8 32.35-6.25L32.35-6.25Q39.95-26.65 39.95-28.1L39.95-28.1Q39.95-29.05 39.15-29.45 38.35-29.85 36.55-29.85L36.55-29.85 34.05-29.85 33.95-30.05 34.3-32.2Q34.95-32.15 37.1-32 39.25-31.85 41.25-31.85L41.25-31.85Q43.05-31.85 44.55-31.9 46.05-31.95 46.55-32L46.55-32 46.2-29.65Q44.7-29.55 44.1-29.13 43.5-28.7 43-27.25L43-27.25 32.5-0.25 29.4 0.85Q28.9-0.9 27.08-7.2 25.25-13.5 23.15-20.35L23.15-20.35 22.85-20.35 15.75-0.25 12.55 0.85ZM46.8 0.6L47-1.45Q48.5-1.85 49.15-2.63 49.8-3.4 49.8-4.7L49.8-4.7 49.8-17.4Q49.8-20.1 47.95-20.1L47.95-20.1Q47.6-20.1 47.2-20.03 46.8-19.95 46.7-19.9L46.7-19.9 46.9-21.75Q49-22.05 51.22-22.55 53.45-23.05 54.1-23.2L54.1-23.2 54.35-22.6Q53.9-21.55 53.55-16.18 53.2-10.8 53.2-4.9L53.2-4.9Q53.2-3.45 53.6-2.78 54-2.1 54.95-2.1L54.95-2.1Q55.5-2.1 56-2.15 56.5-2.2 56.7-2.2L56.7-2.2 56.8-2 56.4 0.15Q55.95 0.1 54.7 0.05 53.45 0 51.95 0L51.95 0Q50.65 0 48.97 0.25 47.3 0.5 46.8 0.6L46.8 0.6ZM51.2-29.1Q50.05-29.1 49.4-29.85 48.75-30.6 48.75-31.65L48.75-31.65Q48.75-32.85 49.6-33.73 50.45-34.6 51.7-34.6L51.7-34.6Q52.85-34.6 53.5-33.85 54.15-33.1 54.15-32.05L54.15-32.05Q54.15-30.85 53.3-29.98 52.45-29.1 51.2-29.1L51.2-29.1ZM60.4-1.75Q61.7-1.95 62.25-2.48 62.8-3 62.92-3.85 63.05-4.7 63.05-6.75L63.05-6.75 63.05-31.3Q63.05-34 61.2-34L61.2-34Q60.85-34 60.45-33.93 60.05-33.85 59.95-33.8L59.95-33.8Q59.95-34.1 60.05-34.7L60.05-34.7 60.15-35.65Q62.3-35.95 64.6-36.45 66.9-36.95 67.55-37.1L67.55-37.1 67.85-36.45Q67.3-35.6 66.87-25.85 66.45-16.1 66.45-4.9L66.45-4.9Q66.45-3.35 66.85-2.73 67.25-2.1 68.25-2.1L68.25-2.1Q68.8-2.1 69.3-2.15 69.8-2.2 70-2.2L70-2.2 70.1-2 69.65 0.15Q69.2 0.1 67.9 0.05 66.6 0 65.1 0L65.1 0Q63.8 0 62.22 0.13 60.65 0.25 60.15 0.3L60.15 0.3 60.4-1.75ZM67.7-11.7L67.8-12.5 73.75-18.2Q74.45-18.85 74.7-19.23 74.95-19.6 74.95-19.95L74.95-19.95Q74.95-20.5 74.3-20.75 73.65-21 72.2-21L72.2-21 72.05-21.25 72.5-22.7Q73.05-22.7 74.52-22.65 76-22.6 77.55-22.6L77.55-22.6Q78.75-22.6 80.3-22.73 81.85-22.85 82.3-22.9L82.3-22.9 82.45-22.65 82.05-21.1Q80-20.5 77.92-18.8 75.85-17.1 72.95-14.2L72.95-14.2Q72.95-14.2 71.4-12.65L71.4-12.65 76.65-5.9Q78.35-3.7 79.75-2.75 81.15-1.8 82.7-1.8L82.7-1.8 82.85-1.55 82.55-0.1Q82.1 0.05 80.7 0.38 79.3 0.7 78.85 0.7L78.85 0.7Q78.1 0.7 77.1 0.2L77.1 0.2Q76.35-0.2 75.57-1.03 74.8-1.85 73.6-3.55L73.6-3.55 67.7-11.7ZM85.74 0.6L85.94-1.45Q87.44-1.85 88.09-2.63 88.74-3.4 88.74-4.7L88.74-4.7 88.74-17.4Q88.74-20.1 86.89-20.1L86.89-20.1Q86.54-20.1 86.14-20.03 85.74-19.95 85.64-19.9L85.64-19.9 85.84-21.75Q87.94-22.05 90.17-22.55 92.39-23.05 93.04-23.2L93.04-23.2 93.29-22.6Q92.84-21.55 92.49-16.18 92.14-10.8 92.14-4.9L92.14-4.9Q92.14-3.45 92.54-2.78 92.94-2.1 93.89-2.1L93.89-2.1Q94.44-2.1 94.94-2.15 95.44-2.2 95.64-2.2L95.64-2.2 95.74-2 95.34 0.15Q94.89 0.1 93.64 0.05 92.39 0 90.89 0L90.89 0Q89.59 0 87.92 0.25 86.24 0.5 85.74 0.6L85.74 0.6ZM90.14-29.1Q88.99-29.1 88.34-29.85 87.69-30.6 87.69-31.65L87.69-31.65Q87.69-32.85 88.54-33.73 89.39-34.6 90.64-34.6L90.64-34.6Q91.79-34.6 92.44-33.85 93.09-33.1 93.09-32.05L93.09-32.05Q93.09-30.85 92.24-29.98 91.39-29.1 90.14-29.1L90.14-29.1ZM124.14 0.6Q119.74 0.6 116.44-1.3 113.14-3.2 111.34-6.68 109.54-10.15 109.54-14.85L109.54-14.85Q109.54-20 111.74-24 113.94-28 117.94-30.23 121.94-32.45 127.09-32.45L127.09-32.45Q128.94-32.45 131.09-32.18 133.24-31.9 134.79-31.63 136.34-31.35 136.79-31.25L136.79-31.25 136.99-30.95Q136.89-30.65 136.64-29.5 136.39-28.35 136.11-26.5 135.84-24.65 135.69-22.6L135.69-22.6 133.34-22.4Q133.39-22.65 133.44-23.38 133.49-24.1 133.49-25.1L133.49-25.1Q133.49-27.4 131.71-28.45 129.94-29.5 125.94-29.5L125.94-29.5Q120.24-29.5 117.06-26.08 113.89-22.65 113.89-16.45L113.89-16.45Q113.89-12.1 115.29-8.8 116.69-5.5 119.29-3.7 121.89-1.9 125.29-1.9L125.29-1.9Q127.09-1.9 128.59-2.33 130.09-2.75 131.11-3.25 132.14-3.75 132.14-3.8L132.14-3.8 132.14-9.9Q132.14-11.6 131.61-12.1 131.09-12.6 129.39-12.6L129.39-12.6 125.94-12.6 125.84-12.8 126.29-15.3Q126.89-15.25 128.84-15.18 130.79-15.1 132.64-15.1L132.64-15.1Q133.99-15.1 135.29-15.2 136.59-15.3 136.94-15.35L136.94-15.35 137.14-14.25Q136.24-13.5 135.91-11.88 135.59-10.25 135.59-6.55L135.59-6.55Q135.59-3.65 135.94-2.15L135.94-2.15 135.64-1.7Q135.64-1.65 133.86-1.03 132.09-0.4 129.51 0.1 126.94 0.6 124.14 0.6L124.14 0.6ZM156.74 0.6Q152.69 0.6 149.54-1.35 146.39-3.3 144.64-6.83 142.89-10.35 142.89-14.85L142.89-14.85Q142.89-19.75 145.06-23.78 147.24-27.8 151.01-30.13 154.79-32.45 159.34-32.45L159.34-32.45Q163.49-32.45 166.69-30.5 169.89-28.55 171.69-25.05 173.49-21.55 173.49-17.05L173.49-17.05Q173.49-12.15 171.26-8.1 169.04-4.05 165.21-1.73 161.39 0.6 156.74 0.6L156.74 0.6ZM158.29-1.95Q161.44-1.95 163.89-3.6 166.34-5.25 167.69-8.2 169.04-11.15 169.04-14.95L169.04-14.95Q169.04-19.2 167.59-22.48 166.14-25.75 163.56-27.6 160.99-29.45 157.64-29.45L157.64-29.45Q154.59-29.45 152.21-27.8 149.84-26.15 148.51-23.2 147.19-20.25 147.19-16.45L147.19-16.45Q147.19-12.2 148.59-8.93 149.99-5.65 152.51-3.8 155.04-1.95 158.29-1.95L158.29-1.95Z" opacity="1" transform="matrix(1,0,0,1,0,0)" fill="#ffffff" class="wordmark-text-0" data-fill-palette-color="primary" id="text-0"></path></svg></g></svg></g><g transform="matrix(1,0,0,1,0,112.46906604503357)"><svg viewBox="0 0 395.5199999999999 42.30576080853452" height="42.30576080853452" width="395.5199999999999"><g transform="matrix(1,0,0,1,0,0)"><svg width="395.5199999999999" viewBox="4.49 -36.01 434.78 46.51" height="42.30576080853452" data-palette-color="#00d1cd"><path d="M4.49-5L4.49-30Q4.49-31.03 4.88-31.95 5.27-32.86 5.96-33.53 6.64-34.2 7.56-34.61 8.47-35.01 9.5-35.01L9.5-35.01 28.49-35.01Q29.52-35.01 30.43-34.61 31.35-34.2 32.03-33.53 32.71-32.86 33.11-31.95 33.5-31.03 33.5-30L33.5-30 33.5-25.49 28.49-25.49 28.49-30 9.5-30 9.5-5 28.49-5 28.49-13.5 18.99-13.5 18.99-18.51 33.5-18.51 33.5-5Q33.5-3.98 33.11-3.06 32.71-2.15 32.03-1.46 31.35-0.78 30.43-0.39 29.52 0 28.49 0L28.49 0 9.5 0Q8.47 0 7.56-0.39 6.64-0.78 5.96-1.46 5.27-2.15 4.88-3.06 4.49-3.98 4.49-5L4.49-5ZM64.48-21.19L64.48-4.81Q64.48-3.81 64.1-2.93 63.72-2.05 63.07-1.4 62.42-0.76 61.56-0.38 60.69 0 59.69 0L59.69 0 46.77 0Q45.8 0 44.92-0.38 44.04-0.76 43.39-1.4 42.75-2.05 42.37-2.93 41.99-3.81 41.99-4.81L41.99-4.81 41.99-21.19Q41.99-22.19 42.37-23.07 42.75-23.95 43.39-24.6 44.04-25.24 44.92-25.62 45.8-26 46.77-26L46.77-26 59.69-26Q60.69-26 61.56-25.62 62.42-25.24 63.07-24.6 63.72-23.95 64.1-23.07 64.48-22.19 64.48-21.19L64.48-21.19ZM59.69-21.19L46.77-21.19 46.77-4.81 59.69-4.81 59.69-21.19ZM105.66-31.2L97.11-31.2 97.11-26 105.66-26 105.66-21.19 97.11-21.19 97.11 0 92.3 0 92.3-21.19 85.95-21.19 85.95-26 92.3-26 92.3-31.2Q92.3-32.2 92.68-33.07 93.06-33.94 93.72-34.59 94.38-35.25 95.26-35.63 96.14-36.01 97.11-36.01L97.11-36.01 105.66-36.01 105.66-31.2ZM134.66-21.19L134.66-4.81Q134.66-3.81 134.28-2.93 133.9-2.05 133.25-1.4 132.61-0.76 131.74-0.38 130.87 0 129.87 0L129.87 0 116.96 0Q115.98 0 115.1-0.38 114.22-0.76 113.58-1.4 112.93-2.05 112.55-2.93 112.17-3.81 112.17-4.81L112.17-4.81 112.17-21.19Q112.17-22.19 112.55-23.07 112.93-23.95 113.58-24.6 114.22-25.24 115.1-25.62 115.98-26 116.96-26L116.96-26 129.87-26Q130.87-26 131.74-25.62 132.61-25.24 133.25-24.6 133.9-23.95 134.28-23.07 134.66-22.19 134.66-21.19L134.66-21.19ZM129.87-21.19L116.96-21.19 116.96-4.81 129.87-4.81 129.87-21.19ZM157.36-21.19L147.45-21.19 147.45 0 142.66 0 142.66-26 147.45-26 147.45-21.41Q147.5-22.36 147.89-23.21 148.28-24.05 148.93-24.67 149.57-25.29 150.43-25.65 151.28-26 152.26-26L152.26-26 157.36-26Q158.36-26 159.23-25.62 160.09-25.24 160.75-24.6 161.41-23.95 161.79-23.07 162.17-22.19 162.17-21.19L162.17-21.19 162.17-16.8 157.36-16.8 157.36-21.19ZM207.09 0L200.32 0 187.92-11.11 187.92 0 183.14 0 183.14-36.01 187.92-36.01 187.92-15.75 199.32-26 206.09-26 192.12-13.45 207.09 0ZM233.57-21.19L233.57 0 228.76 0 228.76-21.19 215.36-21.19 215.36 0 210.58 0 210.58-26 215.36-26 215.36-21.41Q215.41-22.36 215.8-23.21 216.19-24.05 216.84-24.67 217.48-25.29 218.34-25.65 219.19-26 220.17-26L220.17-26 228.76-26Q229.77-26 230.64-25.62 231.52-25.24 232.17-24.6 232.82-23.95 233.2-23.07 233.57-22.19 233.57-21.19L233.57-21.19ZM264.06-21.19L264.06-4.81Q264.06-3.81 263.69-2.93 263.31-2.05 262.66-1.4 262.01-0.76 261.15-0.38 260.28 0 259.28 0L259.28 0 246.36 0Q245.39 0 244.51-0.38 243.63-0.76 242.98-1.4 242.34-2.05 241.96-2.93 241.58-3.81 241.58-4.81L241.58-4.81 241.58-21.19Q241.58-22.19 241.96-23.07 242.34-23.95 242.98-24.6 243.63-25.24 244.51-25.62 245.39-26 246.36-26L246.36-26 259.28-26Q260.28-26 261.15-25.62 262.01-25.24 262.66-24.6 263.31-23.95 263.69-23.07 264.06-22.19 264.06-21.19L264.06-21.19ZM259.28-21.19L246.36-21.19 246.36-4.81 259.28-4.81 259.28-21.19ZM282.47 0L277.47 0 269.07-26 273.93-26 280.08-6.4 285.81-26 290.72-26 296.46-6.4 302.61-26 307.47-26 299.07 0 294.07 0 288.26-19.09 282.47 0ZM312.47-36.01L317.26-36.01 317.26 0 312.47 0 312.47-36.01ZM347.26-21.19L347.26-10.55 330.05-10.55 330.05-4.81 347.26-4.81 347.26 0 330.05 0Q329.07 0 328.19-0.38 327.31-0.76 326.67-1.4 326.02-2.05 325.64-2.93 325.26-3.81 325.26-4.81L325.26-4.81 325.26-21.19Q325.26-22.19 325.64-23.07 326.02-23.95 326.67-24.6 327.31-25.24 328.19-25.62 329.07-26 330.05-26L330.05-26 342.45-26Q343.45-26 344.33-25.62 345.21-25.24 345.86-24.6 346.5-23.95 346.88-23.07 347.26-22.19 347.26-21.19L347.26-21.19ZM342.45-21.19L330.05-21.19 330.05-15.36 342.45-15.36 342.45-21.19ZM355.27-4.81L355.27-21.19Q355.27-22.19 355.64-23.07 356.02-23.95 356.67-24.6 357.32-25.24 358.2-25.62 359.07-26 360.05-26L360.05-26 373.45-26 373.45-36.01 378.26-36.01 378.26 0 373.45 0 373.45-4.39Q373.38-3.49 372.97-2.69 372.55-1.88 371.9-1.28 371.26-0.68 370.43-0.34 369.6 0 368.67 0L368.67 0 360.05 0Q359.07 0 358.2-0.38 357.32-0.76 356.67-1.4 356.02-2.05 355.64-2.93 355.27-3.81 355.27-4.81L355.27-4.81ZM360.05-21.19L360.05-4.81 373.45-4.81 373.45-21.19 360.05-21.19ZM386.27-5.81L386.27-21.19Q386.27-22.19 386.65-23.07 387.03-23.95 387.67-24.6 388.32-25.24 389.2-25.62 390.08-26 391.05-26L391.05-26 399.67-26Q400.62-26 401.48-25.65 402.33-25.29 402.98-24.67 403.63-24.05 404.03-23.21 404.43-22.36 404.46-21.41L404.46-21.41 404.46-26 409.27-26 409.27 5.69Q409.27 6.69 408.89 7.57 408.51 8.45 407.86 9.09 407.22 9.74 406.34 10.12 405.46 10.5 404.46 10.5L404.46 10.5 389.27 10.5 389.27 5.69 404.46 5.69 404.46-1 391.05-1Q390.08-1 389.2-1.38 388.32-1.76 387.67-2.4 387.03-3.05 386.65-3.93 386.27-4.81 386.27-5.81L386.27-5.81ZM391.05-5.81L404.46-5.81 404.46-21.19 391.05-21.19 391.05-5.81ZM439.27-21.19L439.27-10.55 422.06-10.55 422.06-4.81 439.27-4.81 439.27 0 422.06 0Q421.08 0 420.2-0.38 419.32-0.76 418.68-1.4 418.03-2.05 417.65-2.93 417.27-3.81 417.27-4.81L417.27-4.81 417.27-21.19Q417.27-22.19 417.65-23.07 418.03-23.95 418.68-24.6 419.32-25.24 420.2-25.62 421.08-26 422.06-26L422.06-26 434.46-26Q435.46-26 436.34-25.62 437.22-25.24 437.87-24.6 438.51-23.95 438.89-23.07 439.27-22.19 439.27-21.19L439.27-21.19ZM434.46-21.19L422.06-21.19 422.06-15.36 434.46-15.36 434.46-21.19Z" opacity="1" transform="matrix(1,0,0,1,0,0)" fill="#00d1cd" class="slogan-text-1" data-fill-palette-color="secondary" id="text-1"></path></svg></g></svg></g></svg></g></svg></g></svg></g><defs></defs></svg><rect width="395.52" height="154.00480283937128" fill="none" stroke="none" visibility="hidden"></rect></g></svg></g></svg>