<?xml version="1.0" encoding="UTF-8" standalone="no"?>
<!DOCTYPE svg PUBLIC "-//W3C//DTD SVG 1.1//EN" "http://www.w3.org/Graphics/SVG/1.1/DTD/svg11.dtd">
<svg width="100%" height="100%" viewBox="0 0 798 284" version="1.1" xmlns="http://www.w3.org/2000/svg" xmlns:xlink="http://www.w3.org/1999/xlink" xml:space="preserve" xmlns:serif="http://www.serif.com/" style="fill-rule:evenodd;clip-rule:evenodd;stroke-linejoin:round;stroke-miterlimit:2;">
    <g id="Artboard1" transform="matrix(12.5892,0,0,3.47564,-179.508,-607.827)">
        <rect x="14.259" y="174.882" width="63.332" height="81.427" style="fill:none;"/>
        <clipPath id="_clip1">
            <rect x="14.259" y="174.882" width="63.332" height="81.427"/>
        </clipPath>
        <g clip-path="url(#_clip1)">
            <g transform="matrix(0.0706717,0,0,0.304341,7.87628,41.5836)">
                <rect x="84.716" y="437.256" width="902.548" height="269.777" style="fill:rgb(51,47,47);"/>
            </g>
            <g transform="matrix(0.0794333,0,0,0.287717,9.54883,111.109)">
                <g transform="matrix(37.9786,0,0,37.9786,153.26,457.818)">
                    <path d="M0.064,-0.718L0.188,-0.718L0.229,-0.253L0.449,-0.718L0.55,-0.718L0.636,-0.265L0.796,-0.718L0.926,-0.718L0.672,-0L0.562,-0L0.471,-0.476L0.247,-0L0.13,-0L0.064,-0.718Z" style="fill:rgb(146,167,180);fill-rule:nonzero;"/>
                </g>
                <g transform="matrix(37.9786,0,0,37.9786,187.437,457.818)">
                    <path d="M0.42,-0.155L0.535,-0.096C0.509,-0.062 0.475,-0.035 0.433,-0.016C0.39,0.004 0.343,0.014 0.292,0.014C0.21,0.014 0.147,-0.009 0.1,-0.055C0.053,-0.1 0.03,-0.161 0.03,-0.236C0.03,-0.323 0.059,-0.396 0.117,-0.455C0.176,-0.515 0.246,-0.545 0.329,-0.545C0.379,-0.545 0.423,-0.534 0.462,-0.512C0.501,-0.49 0.532,-0.459 0.554,-0.417C0.577,-0.375 0.588,-0.33 0.588,-0.281C0.588,-0.266 0.586,-0.248 0.583,-0.228L0.159,-0.228C0.16,-0.191 0.173,-0.161 0.196,-0.139C0.219,-0.117 0.25,-0.106 0.291,-0.106C0.339,-0.106 0.383,-0.123 0.42,-0.155ZM0.454,-0.323C0.444,-0.356 0.428,-0.38 0.405,-0.397C0.382,-0.414 0.354,-0.422 0.322,-0.422C0.29,-0.422 0.262,-0.414 0.236,-0.396C0.21,-0.379 0.191,-0.355 0.177,-0.323L0.454,-0.323Z" style="fill:rgb(146,167,180);fill-rule:nonzero;"/>
                </g>
                <g transform="matrix(37.9786,0,0,37.9786,222.374,457.818)">
                    <path d="M0.492,-0.531L0.622,-0.531L0.561,-0.105C0.55,-0.021 0.538,0.034 0.526,0.062C0.507,0.104 0.474,0.139 0.429,0.166C0.384,0.194 0.327,0.208 0.258,0.208C0.202,0.208 0.152,0.197 0.11,0.176C0.068,0.154 0.036,0.126 0.015,0.092L0.13,0.033C0.164,0.069 0.208,0.086 0.263,0.086C0.295,0.086 0.323,0.081 0.346,0.069C0.369,0.058 0.387,0.043 0.4,0.023C0.413,0.004 0.422,-0.025 0.428,-0.063C0.379,-0.021 0.325,-0 0.264,-0C0.221,-0 0.182,-0.01 0.146,-0.031C0.11,-0.052 0.081,-0.082 0.061,-0.12C0.04,-0.158 0.03,-0.201 0.03,-0.247C0.03,-0.299 0.043,-0.349 0.07,-0.395C0.097,-0.441 0.134,-0.477 0.18,-0.504C0.227,-0.531 0.275,-0.545 0.326,-0.545C0.357,-0.545 0.384,-0.539 0.409,-0.527C0.434,-0.515 0.459,-0.495 0.483,-0.467L0.492,-0.531ZM0.331,-0.422C0.283,-0.422 0.242,-0.405 0.208,-0.372C0.175,-0.339 0.158,-0.298 0.158,-0.25C0.158,-0.21 0.171,-0.179 0.195,-0.155C0.22,-0.131 0.253,-0.119 0.295,-0.119C0.326,-0.119 0.355,-0.126 0.382,-0.141C0.408,-0.155 0.429,-0.176 0.444,-0.203C0.46,-0.231 0.468,-0.26 0.468,-0.291C0.468,-0.329 0.455,-0.36 0.429,-0.385C0.404,-0.409 0.371,-0.422 0.331,-0.422Z" style="fill:rgb(146,167,180);fill-rule:nonzero;"/>
                </g>
                <g transform="matrix(37.9786,0,0,37.9786,247.446,457.818)">
                    <path d="M0.334,-0.545C0.381,-0.545 0.424,-0.534 0.463,-0.512C0.501,-0.49 0.531,-0.459 0.553,-0.419C0.574,-0.379 0.585,-0.334 0.585,-0.285C0.585,-0.202 0.556,-0.132 0.497,-0.073C0.438,-0.015 0.365,0.014 0.278,0.014C0.202,0.014 0.142,-0.009 0.097,-0.055C0.052,-0.101 0.03,-0.16 0.03,-0.234C0.03,-0.324 0.06,-0.398 0.121,-0.457C0.182,-0.515 0.253,-0.545 0.334,-0.545ZM0.325,-0.421C0.272,-0.421 0.231,-0.402 0.202,-0.364C0.174,-0.326 0.16,-0.284 0.16,-0.24C0.16,-0.2 0.171,-0.168 0.195,-0.144C0.218,-0.12 0.249,-0.107 0.287,-0.107C0.342,-0.107 0.384,-0.126 0.413,-0.163C0.442,-0.2 0.456,-0.242 0.456,-0.29C0.456,-0.329 0.444,-0.36 0.419,-0.385C0.395,-0.409 0.364,-0.421 0.325,-0.421Z" style="fill:rgb(146,167,180);fill-rule:nonzero;"/>
                </g>
                <g transform="matrix(37.9786,0,0,37.9786,282.383,457.818)">
                    <path d="M0.027,-0.531L0.084,-0.531C0.093,-0.601 0.103,-0.648 0.115,-0.674C0.126,-0.699 0.141,-0.718 0.16,-0.731C0.179,-0.744 0.203,-0.75 0.231,-0.75C0.268,-0.75 0.302,-0.739 0.333,-0.718L0.319,-0.612C0.301,-0.628 0.283,-0.636 0.265,-0.636C0.251,-0.636 0.241,-0.631 0.235,-0.621C0.228,-0.611 0.222,-0.581 0.214,-0.531L0.295,-0.531L0.281,-0.419L0.201,-0.419L0.142,-0L0.012,-0L0.069,-0.419L0.013,-0.419L0.027,-0.531Z" style="fill:rgb(146,167,180);fill-rule:nonzero;"/>
                </g>
                <g transform="matrix(37.9786,0,0,37.9786,293.009,457.818)">
                    <path d="M0.334,-0.545C0.381,-0.545 0.424,-0.534 0.463,-0.512C0.501,-0.49 0.531,-0.459 0.553,-0.419C0.574,-0.379 0.585,-0.334 0.585,-0.285C0.585,-0.202 0.556,-0.132 0.497,-0.073C0.438,-0.015 0.365,0.014 0.278,0.014C0.202,0.014 0.142,-0.009 0.097,-0.055C0.052,-0.101 0.03,-0.16 0.03,-0.234C0.03,-0.324 0.06,-0.398 0.121,-0.457C0.182,-0.515 0.253,-0.545 0.334,-0.545ZM0.325,-0.421C0.272,-0.421 0.231,-0.402 0.202,-0.364C0.174,-0.326 0.16,-0.284 0.16,-0.24C0.16,-0.2 0.171,-0.168 0.195,-0.144C0.218,-0.12 0.249,-0.107 0.287,-0.107C0.342,-0.107 0.384,-0.126 0.413,-0.163C0.442,-0.2 0.456,-0.242 0.456,-0.29C0.456,-0.329 0.444,-0.36 0.419,-0.385C0.395,-0.409 0.364,-0.421 0.325,-0.421Z" style="fill:rgb(146,167,180);fill-rule:nonzero;"/>
                </g>
                <g transform="matrix(37.9786,0,0,37.9786,317.32,457.818)">
                    <path d="M0.065,-0.531L0.181,-0.531L0.172,-0.459C0.207,-0.516 0.248,-0.545 0.297,-0.545C0.309,-0.545 0.321,-0.542 0.334,-0.536L0.286,-0.417C0.276,-0.421 0.269,-0.422 0.264,-0.422C0.239,-0.422 0.216,-0.408 0.196,-0.378C0.176,-0.349 0.16,-0.289 0.149,-0.2L0.123,-0L-0.008,-0L0.065,-0.531Z" style="fill:rgb(146,167,180);fill-rule:nonzero;"/>
                </g>
                <g transform="matrix(37.9786,0,0,37.9786,340.093,457.818)">
                    <path d="M0.123,-0.736L0.252,-0.736L0.198,-0.348L0.406,-0.531L0.585,-0.531L0.316,-0.294L0.551,-0L0.395,-0L0.186,-0.26L0.15,-0L0.022,-0L0.123,-0.736Z" style="fill:rgb(146,167,180);fill-rule:nonzero;"/>
                </g>
                <g transform="matrix(37.9786,0,0,37.9786,362.123,457.818)">
                    <path d="M0.095,-0.531L0.225,-0.531L0.218,-0.477C0.268,-0.522 0.319,-0.545 0.373,-0.545C0.419,-0.545 0.457,-0.53 0.486,-0.501C0.515,-0.472 0.53,-0.435 0.53,-0.391C0.53,-0.37 0.527,-0.339 0.522,-0.298L0.481,-0L0.351,-0L0.391,-0.291C0.395,-0.32 0.397,-0.343 0.397,-0.358C0.397,-0.379 0.391,-0.396 0.378,-0.407C0.366,-0.419 0.349,-0.425 0.326,-0.425C0.304,-0.425 0.282,-0.417 0.26,-0.402C0.238,-0.387 0.222,-0.366 0.21,-0.339C0.198,-0.312 0.187,-0.262 0.178,-0.188L0.153,-0L0.022,-0L0.095,-0.531Z" style="fill:rgb(146,167,180);fill-rule:nonzero;"/>
                </g>
                <g transform="matrix(37.9786,0,0,37.9786,384.914,457.818)">
                    <path d="M0.334,-0.545C0.381,-0.545 0.424,-0.534 0.463,-0.512C0.501,-0.49 0.531,-0.459 0.553,-0.419C0.574,-0.379 0.585,-0.334 0.585,-0.285C0.585,-0.202 0.556,-0.132 0.497,-0.073C0.438,-0.015 0.365,0.014 0.278,0.014C0.202,0.014 0.142,-0.009 0.097,-0.055C0.052,-0.101 0.03,-0.16 0.03,-0.234C0.03,-0.324 0.06,-0.398 0.121,-0.457C0.182,-0.515 0.253,-0.545 0.334,-0.545ZM0.325,-0.421C0.272,-0.421 0.231,-0.402 0.202,-0.364C0.174,-0.326 0.16,-0.284 0.16,-0.24C0.16,-0.2 0.171,-0.168 0.195,-0.144C0.218,-0.12 0.249,-0.107 0.287,-0.107C0.342,-0.107 0.384,-0.126 0.413,-0.163C0.442,-0.2 0.456,-0.242 0.456,-0.29C0.456,-0.329 0.444,-0.36 0.419,-0.385C0.395,-0.409 0.364,-0.421 0.325,-0.421Z" style="fill:rgb(146,167,180);fill-rule:nonzero;"/>
                </g>
                <g transform="matrix(37.9786,0,0,37.9786,409.226,457.818)">
                    <path d="M0.025,-0.531L0.151,-0.531L0.224,-0.247L0.379,-0.531L0.43,-0.531L0.505,-0.247L0.659,-0.531L0.797,-0.531L0.508,-0L0.446,-0L0.373,-0.281L0.222,-0L0.16,-0L0.025,-0.531Z" style="fill:rgb(146,167,180);fill-rule:nonzero;"/>
                </g>
                <g transform="matrix(37.9786,0,0,37.9786,439.601,457.818)">
                    <path d="M0.107,-0.736L0.238,-0.736L0.137,-0L0.007,-0L0.107,-0.736Z" style="fill:rgb(146,167,180);fill-rule:nonzero;"/>
                </g>
                <g transform="matrix(37.9786,0,0,37.9786,448.706,457.818)">
                    <path d="M0.42,-0.155L0.535,-0.096C0.509,-0.062 0.475,-0.035 0.433,-0.016C0.39,0.004 0.343,0.014 0.292,0.014C0.21,0.014 0.147,-0.009 0.1,-0.055C0.053,-0.1 0.03,-0.161 0.03,-0.236C0.03,-0.323 0.059,-0.396 0.117,-0.455C0.176,-0.515 0.246,-0.545 0.329,-0.545C0.379,-0.545 0.423,-0.534 0.462,-0.512C0.501,-0.49 0.532,-0.459 0.554,-0.417C0.577,-0.375 0.588,-0.33 0.588,-0.281C0.588,-0.266 0.586,-0.248 0.583,-0.228L0.159,-0.228C0.16,-0.191 0.173,-0.161 0.196,-0.139C0.219,-0.117 0.25,-0.106 0.291,-0.106C0.339,-0.106 0.383,-0.123 0.42,-0.155ZM0.454,-0.323C0.444,-0.356 0.428,-0.38 0.405,-0.397C0.382,-0.414 0.354,-0.422 0.322,-0.422C0.29,-0.422 0.262,-0.414 0.236,-0.396C0.21,-0.379 0.191,-0.355 0.177,-0.323L0.454,-0.323Z" style="fill:rgb(146,167,180);fill-rule:nonzero;"/>
                </g>
                <g transform="matrix(37.9786,0,0,37.9786,473.018,457.818)">
                    <path d="M0.513,-0.736L0.644,-0.736L0.542,-0L0.413,-0L0.42,-0.057C0.392,-0.031 0.366,-0.012 0.341,-0.002C0.316,0.008 0.289,0.014 0.258,0.014C0.188,0.014 0.132,-0.012 0.09,-0.064C0.049,-0.116 0.028,-0.176 0.028,-0.245C0.028,-0.297 0.041,-0.347 0.068,-0.394C0.094,-0.442 0.13,-0.479 0.175,-0.505C0.22,-0.532 0.266,-0.545 0.315,-0.545C0.348,-0.545 0.379,-0.537 0.406,-0.522C0.434,-0.507 0.457,-0.485 0.475,-0.456L0.513,-0.736ZM0.289,-0.103C0.321,-0.103 0.349,-0.11 0.373,-0.124C0.397,-0.138 0.417,-0.161 0.433,-0.191C0.449,-0.222 0.457,-0.253 0.457,-0.285C0.457,-0.327 0.445,-0.361 0.421,-0.386C0.397,-0.412 0.364,-0.425 0.325,-0.425C0.278,-0.425 0.239,-0.408 0.206,-0.374C0.174,-0.339 0.158,-0.295 0.158,-0.241C0.158,-0.2 0.17,-0.166 0.195,-0.141C0.219,-0.115 0.251,-0.103 0.289,-0.103Z" style="fill:rgb(146,167,180);fill-rule:nonzero;"/>
                </g>
                <g transform="matrix(37.9786,0,0,37.9786,498.089,457.818)">
                    <path d="M0.492,-0.531L0.622,-0.531L0.561,-0.105C0.55,-0.021 0.538,0.034 0.526,0.062C0.507,0.104 0.474,0.139 0.429,0.166C0.384,0.194 0.327,0.208 0.258,0.208C0.202,0.208 0.152,0.197 0.11,0.176C0.068,0.154 0.036,0.126 0.015,0.092L0.13,0.033C0.164,0.069 0.208,0.086 0.263,0.086C0.295,0.086 0.323,0.081 0.346,0.069C0.369,0.058 0.387,0.043 0.4,0.023C0.413,0.004 0.422,-0.025 0.428,-0.063C0.379,-0.021 0.325,-0 0.264,-0C0.221,-0 0.182,-0.01 0.146,-0.031C0.11,-0.052 0.081,-0.082 0.061,-0.12C0.04,-0.158 0.03,-0.201 0.03,-0.247C0.03,-0.299 0.043,-0.349 0.07,-0.395C0.097,-0.441 0.134,-0.477 0.18,-0.504C0.227,-0.531 0.275,-0.545 0.326,-0.545C0.357,-0.545 0.384,-0.539 0.409,-0.527C0.434,-0.515 0.459,-0.495 0.483,-0.467L0.492,-0.531ZM0.331,-0.422C0.283,-0.422 0.242,-0.405 0.208,-0.372C0.175,-0.339 0.158,-0.298 0.158,-0.25C0.158,-0.21 0.171,-0.179 0.195,-0.155C0.22,-0.131 0.253,-0.119 0.295,-0.119C0.326,-0.119 0.355,-0.126 0.382,-0.141C0.408,-0.155 0.429,-0.176 0.444,-0.203C0.46,-0.231 0.468,-0.26 0.468,-0.291C0.468,-0.329 0.455,-0.36 0.429,-0.385C0.404,-0.409 0.371,-0.422 0.331,-0.422Z" style="fill:rgb(146,167,180);fill-rule:nonzero;"/>
                </g>
                <g transform="matrix(37.9786,0,0,37.9786,523.161,457.818)">
                    <path d="M0.42,-0.155L0.535,-0.096C0.509,-0.062 0.475,-0.035 0.433,-0.016C0.39,0.004 0.343,0.014 0.292,0.014C0.21,0.014 0.147,-0.009 0.1,-0.055C0.053,-0.1 0.03,-0.161 0.03,-0.236C0.03,-0.323 0.059,-0.396 0.117,-0.455C0.176,-0.515 0.246,-0.545 0.329,-0.545C0.379,-0.545 0.423,-0.534 0.462,-0.512C0.501,-0.49 0.532,-0.459 0.554,-0.417C0.577,-0.375 0.588,-0.33 0.588,-0.281C0.588,-0.266 0.586,-0.248 0.583,-0.228L0.159,-0.228C0.16,-0.191 0.173,-0.161 0.196,-0.139C0.219,-0.117 0.25,-0.106 0.291,-0.106C0.339,-0.106 0.383,-0.123 0.42,-0.155ZM0.454,-0.323C0.444,-0.356 0.428,-0.38 0.405,-0.397C0.382,-0.414 0.354,-0.422 0.322,-0.422C0.29,-0.422 0.262,-0.414 0.236,-0.396C0.21,-0.379 0.191,-0.355 0.177,-0.323L0.454,-0.323Z" style="fill:rgb(146,167,180);fill-rule:nonzero;"/>
                </g>
            </g>
            <g transform="matrix(0.0794333,0,0,0.287717,-4.88979,109.619)">
                <g transform="matrix(206.682,0,0,206.682,277.179,410.937)">
                    <path d="M0.099,-0.415C0.11,-0.415 0.12,-0.415 0.13,-0.416C0.14,-0.416 0.151,-0.417 0.164,-0.418C0.176,-0.419 0.187,-0.42 0.196,-0.42C0.197,-0.417 0.198,-0.412 0.198,-0.404C0.197,-0.397 0.196,-0.393 0.194,-0.392C0.189,-0.392 0.184,-0.391 0.178,-0.391C0.172,-0.39 0.165,-0.388 0.157,-0.384C0.149,-0.38 0.146,-0.375 0.146,-0.369C0.146,-0.368 0.147,-0.364 0.15,-0.354C0.157,-0.337 0.191,-0.257 0.251,-0.114C0.259,-0.134 0.268,-0.157 0.278,-0.182C0.288,-0.208 0.296,-0.227 0.301,-0.24C0.306,-0.252 0.311,-0.265 0.316,-0.279C0.321,-0.292 0.325,-0.302 0.327,-0.308C0.329,-0.314 0.33,-0.318 0.33,-0.319C0.33,-0.323 0.328,-0.331 0.323,-0.343C0.318,-0.354 0.313,-0.365 0.307,-0.373C0.298,-0.385 0.284,-0.392 0.264,-0.392C0.261,-0.393 0.26,-0.397 0.26,-0.405C0.26,-0.412 0.261,-0.417 0.264,-0.42C0.272,-0.42 0.285,-0.419 0.303,-0.417C0.321,-0.416 0.337,-0.415 0.353,-0.415C0.355,-0.415 0.389,-0.417 0.454,-0.42C0.455,-0.417 0.456,-0.412 0.456,-0.405C0.456,-0.398 0.455,-0.394 0.453,-0.392C0.421,-0.392 0.404,-0.381 0.404,-0.36C0.404,-0.359 0.405,-0.355 0.407,-0.35C0.408,-0.345 0.411,-0.338 0.414,-0.33C0.417,-0.321 0.421,-0.31 0.426,-0.296L0.467,-0.191C0.477,-0.166 0.487,-0.141 0.496,-0.117C0.545,-0.238 0.573,-0.311 0.582,-0.336C0.585,-0.346 0.587,-0.354 0.587,-0.359C0.587,-0.366 0.585,-0.371 0.582,-0.376C0.578,-0.38 0.573,-0.383 0.565,-0.385C0.558,-0.388 0.552,-0.389 0.548,-0.39C0.544,-0.39 0.537,-0.391 0.528,-0.392C0.526,-0.393 0.525,-0.398 0.525,-0.405C0.525,-0.412 0.526,-0.417 0.528,-0.42C0.537,-0.42 0.55,-0.419 0.566,-0.417C0.582,-0.416 0.598,-0.415 0.613,-0.415C0.624,-0.415 0.634,-0.415 0.643,-0.416C0.651,-0.416 0.661,-0.417 0.672,-0.418C0.683,-0.419 0.693,-0.42 0.703,-0.42C0.704,-0.419 0.705,-0.414 0.704,-0.406C0.704,-0.399 0.703,-0.394 0.7,-0.392C0.691,-0.392 0.679,-0.389 0.664,-0.383C0.649,-0.378 0.639,-0.369 0.634,-0.356C0.576,-0.212 0.529,-0.095 0.492,-0.006C0.491,-0.002 0.488,0.002 0.483,0.005C0.478,0.009 0.475,0.011 0.472,0.011C0.465,0.011 0.461,0.009 0.46,0.007L0.352,-0.275L0.246,-0.008C0.245,-0.006 0.242,-0.002 0.237,0.003C0.231,0.008 0.226,0.011 0.222,0.011C0.217,0.011 0.214,0.009 0.213,0.007C0.159,-0.129 0.106,-0.255 0.055,-0.37C0.049,-0.384 0.031,-0.392 0.002,-0.392C0.001,-0.395 0,-0.399 0,-0.406C0,-0.412 0.001,-0.417 0.002,-0.42C0.012,-0.42 0.022,-0.419 0.034,-0.418C0.046,-0.417 0.057,-0.416 0.066,-0.416C0.076,-0.415 0.087,-0.415 0.099,-0.415Z" style="fill:rgb(240,234,234);fill-rule:nonzero;"/>
                </g>
                <g transform="matrix(206.682,0,0,206.682,422.704,410.937)">
                    <path d="M0.098,-0.544C0.088,-0.554 0.083,-0.565 0.083,-0.579C0.083,-0.593 0.088,-0.604 0.098,-0.614C0.107,-0.623 0.119,-0.628 0.132,-0.628C0.146,-0.628 0.158,-0.623 0.167,-0.614C0.176,-0.604 0.181,-0.593 0.181,-0.579C0.181,-0.565 0.176,-0.554 0.167,-0.544C0.158,-0.535 0.146,-0.53 0.132,-0.53C0.119,-0.53 0.107,-0.535 0.098,-0.544ZM0.177,-0.35L0.177,-0.113C0.177,-0.076 0.179,-0.051 0.182,-0.041C0.183,-0.036 0.192,-0.033 0.207,-0.03C0.222,-0.027 0.234,-0.025 0.244,-0.025C0.246,-0.023 0.247,-0.018 0.247,-0.011C0.247,-0.004 0.246,0 0.244,0.003C0.177,-0 0.142,-0.002 0.139,-0.002C0.128,-0.002 0.117,-0.002 0.106,-0.001C0.096,-0.001 0.083,-0 0.07,0.001C0.056,0.002 0.045,0.003 0.036,0.003C0.033,0 0.032,-0.004 0.032,-0.011C0.033,-0.018 0.034,-0.023 0.036,-0.025C0.045,-0.025 0.057,-0.027 0.073,-0.03C0.088,-0.033 0.096,-0.036 0.097,-0.041C0.1,-0.049 0.101,-0.073 0.102,-0.113L0.102,-0.295C0.102,-0.321 0.1,-0.338 0.097,-0.346C0.095,-0.351 0.089,-0.354 0.079,-0.357C0.068,-0.36 0.059,-0.362 0.052,-0.363C0.045,-0.363 0.039,-0.363 0.034,-0.363C0.032,-0.365 0.032,-0.368 0.031,-0.375C0.031,-0.382 0.032,-0.386 0.034,-0.389C0.089,-0.396 0.136,-0.41 0.173,-0.43C0.176,-0.43 0.178,-0.428 0.18,-0.424C0.183,-0.42 0.184,-0.417 0.184,-0.414C0.18,-0.382 0.177,-0.361 0.177,-0.35Z" style="fill:rgb(240,234,234);fill-rule:nonzero;"/>
                </g>
                <g transform="matrix(206.682,0,0,206.682,477.201,410.937)">
                    <path d="M0.163,-0.113C0.163,-0.076 0.164,-0.051 0.167,-0.041C0.169,-0.036 0.177,-0.033 0.192,-0.03C0.207,-0.027 0.22,-0.025 0.229,-0.025C0.231,-0.023 0.232,-0.018 0.232,-0.011C0.232,-0.004 0.231,0 0.229,0.003C0.162,-0 0.127,-0.002 0.125,-0.002C0.113,-0.002 0.102,-0.002 0.092,-0.001C0.081,-0.001 0.069,-0 0.055,0.001C0.042,0.002 0.03,0.003 0.021,0.003C0.019,0 0.018,-0.004 0.018,-0.011C0.018,-0.018 0.019,-0.023 0.021,-0.025C0.03,-0.025 0.043,-0.027 0.058,-0.03C0.073,-0.033 0.081,-0.036 0.083,-0.041C0.086,-0.051 0.087,-0.076 0.087,-0.113L0.087,-0.545C0.087,-0.571 0.086,-0.588 0.083,-0.596C0.078,-0.607 0.058,-0.613 0.023,-0.613C0.023,-0.613 0.022,-0.615 0.022,-0.619C0.022,-0.623 0.022,-0.628 0.022,-0.632C0.022,-0.636 0.023,-0.638 0.024,-0.639C0.069,-0.643 0.115,-0.656 0.163,-0.678C0.165,-0.678 0.167,-0.676 0.17,-0.673C0.172,-0.669 0.173,-0.666 0.173,-0.662C0.166,-0.641 0.163,-0.613 0.163,-0.577L0.163,-0.229C0.174,-0.234 0.201,-0.254 0.243,-0.289C0.251,-0.296 0.26,-0.304 0.271,-0.313C0.282,-0.322 0.29,-0.329 0.297,-0.334C0.303,-0.339 0.309,-0.344 0.315,-0.349C0.321,-0.355 0.326,-0.359 0.328,-0.362C0.331,-0.366 0.333,-0.368 0.333,-0.37C0.333,-0.372 0.332,-0.374 0.331,-0.375C0.329,-0.377 0.327,-0.378 0.325,-0.38C0.322,-0.381 0.319,-0.382 0.317,-0.383C0.314,-0.383 0.311,-0.384 0.308,-0.385L0.286,-0.387C0.283,-0.39 0.282,-0.396 0.283,-0.403C0.283,-0.41 0.285,-0.414 0.288,-0.415C0.319,-0.412 0.35,-0.41 0.381,-0.41C0.415,-0.41 0.444,-0.412 0.467,-0.415C0.469,-0.412 0.47,-0.407 0.47,-0.4C0.47,-0.393 0.469,-0.389 0.467,-0.387C0.458,-0.387 0.446,-0.385 0.43,-0.38C0.414,-0.376 0.401,-0.371 0.392,-0.364C0.32,-0.312 0.267,-0.271 0.234,-0.243C0.252,-0.223 0.276,-0.198 0.304,-0.166C0.332,-0.134 0.355,-0.109 0.373,-0.089C0.391,-0.07 0.403,-0.058 0.41,-0.052C0.421,-0.042 0.436,-0.035 0.452,-0.031C0.469,-0.027 0.485,-0.025 0.5,-0.025C0.5,-0.024 0.501,-0.02 0.502,-0.014C0.502,-0.009 0.502,-0.005 0.5,-0.002C0.491,0.002 0.47,0.004 0.437,0.004C0.411,0.004 0.387,-0.001 0.364,-0.01C0.342,-0.02 0.326,-0.029 0.317,-0.039C0.261,-0.1 0.214,-0.15 0.177,-0.19C0.176,-0.192 0.174,-0.193 0.172,-0.194C0.169,-0.196 0.167,-0.198 0.165,-0.198L0.163,-0.199L0.163,-0.113Z" style="fill:rgb(240,234,234);fill-rule:nonzero;"/>
                </g>
                <g transform="matrix(206.682,0,0,206.682,581.753,410.937)">
                    <path d="M0.098,-0.544C0.088,-0.554 0.083,-0.565 0.083,-0.579C0.083,-0.593 0.088,-0.604 0.098,-0.614C0.107,-0.623 0.119,-0.628 0.132,-0.628C0.146,-0.628 0.158,-0.623 0.167,-0.614C0.176,-0.604 0.181,-0.593 0.181,-0.579C0.181,-0.565 0.176,-0.554 0.167,-0.544C0.158,-0.535 0.146,-0.53 0.132,-0.53C0.119,-0.53 0.107,-0.535 0.098,-0.544ZM0.177,-0.35L0.177,-0.113C0.177,-0.076 0.179,-0.051 0.182,-0.041C0.183,-0.036 0.192,-0.033 0.207,-0.03C0.222,-0.027 0.234,-0.025 0.244,-0.025C0.246,-0.023 0.247,-0.018 0.247,-0.011C0.247,-0.004 0.246,0 0.244,0.003C0.177,-0 0.142,-0.002 0.139,-0.002C0.128,-0.002 0.117,-0.002 0.106,-0.001C0.096,-0.001 0.083,-0 0.07,0.001C0.056,0.002 0.045,0.003 0.036,0.003C0.033,0 0.032,-0.004 0.032,-0.011C0.033,-0.018 0.034,-0.023 0.036,-0.025C0.045,-0.025 0.057,-0.027 0.073,-0.03C0.088,-0.033 0.096,-0.036 0.097,-0.041C0.1,-0.049 0.101,-0.073 0.102,-0.113L0.102,-0.295C0.102,-0.321 0.1,-0.338 0.097,-0.346C0.095,-0.351 0.089,-0.354 0.079,-0.357C0.068,-0.36 0.059,-0.362 0.052,-0.363C0.045,-0.363 0.039,-0.363 0.034,-0.363C0.032,-0.365 0.032,-0.368 0.031,-0.375C0.031,-0.382 0.032,-0.386 0.034,-0.389C0.089,-0.396 0.136,-0.41 0.173,-0.43C0.176,-0.43 0.178,-0.428 0.18,-0.424C0.183,-0.42 0.184,-0.417 0.184,-0.414C0.18,-0.382 0.177,-0.361 0.177,-0.35Z" style="fill:rgb(240,234,234);fill-rule:nonzero;"/>
                </g>
            </g>
            <g transform="matrix(0.0673645,0,0,0.244002,30.4715,88.9409)">
                <g transform="matrix(183.717,0,0,183.717,259.084,568.855)">
                    <path d="M0.065,-0.531L0.181,-0.531L0.172,-0.459C0.207,-0.516 0.248,-0.545 0.297,-0.545C0.309,-0.545 0.321,-0.542 0.334,-0.536L0.286,-0.417C0.276,-0.421 0.269,-0.422 0.264,-0.422C0.239,-0.422 0.216,-0.408 0.196,-0.378C0.176,-0.349 0.16,-0.289 0.149,-0.2L0.123,-0L-0.008,-0L0.065,-0.531Z" style="fill:rgb(22,136,212);fill-rule:nonzero;"/>
                </g>
                <g transform="matrix(183.717,0,0,183.717,317.842,568.855)">
                    <path d="M0.42,-0.155L0.535,-0.096C0.509,-0.062 0.475,-0.035 0.433,-0.016C0.39,0.004 0.343,0.014 0.292,0.014C0.21,0.014 0.147,-0.009 0.1,-0.055C0.053,-0.1 0.03,-0.161 0.03,-0.236C0.03,-0.323 0.059,-0.396 0.117,-0.455C0.176,-0.515 0.246,-0.545 0.329,-0.545C0.379,-0.545 0.423,-0.534 0.462,-0.512C0.501,-0.49 0.532,-0.459 0.554,-0.417C0.577,-0.375 0.588,-0.33 0.588,-0.281C0.588,-0.266 0.586,-0.248 0.583,-0.228L0.159,-0.228C0.16,-0.191 0.173,-0.161 0.196,-0.139C0.219,-0.117 0.25,-0.106 0.291,-0.106C0.339,-0.106 0.383,-0.123 0.42,-0.155ZM0.454,-0.323C0.444,-0.356 0.428,-0.38 0.405,-0.397C0.382,-0.414 0.354,-0.422 0.322,-0.422C0.29,-0.422 0.262,-0.414 0.236,-0.396C0.21,-0.379 0.191,-0.355 0.177,-0.323L0.454,-0.323Z" style="fill:rgb(22,136,212);fill-rule:nonzero;"/>
                </g>
                <g transform="matrix(183.717,0,0,183.717,435.446,568.855)">
                    <path d="M0.492,-0.531L0.622,-0.531L0.561,-0.105C0.55,-0.021 0.538,0.034 0.526,0.062C0.507,0.104 0.474,0.139 0.429,0.166C0.384,0.194 0.327,0.208 0.258,0.208C0.202,0.208 0.152,0.197 0.11,0.176C0.068,0.154 0.036,0.126 0.015,0.092L0.13,0.033C0.164,0.069 0.208,0.086 0.263,0.086C0.295,0.086 0.323,0.081 0.346,0.069C0.369,0.058 0.387,0.043 0.4,0.023C0.413,0.004 0.422,-0.025 0.428,-0.063C0.379,-0.021 0.325,-0 0.264,-0C0.221,-0 0.182,-0.01 0.146,-0.031C0.11,-0.052 0.081,-0.082 0.061,-0.12C0.04,-0.158 0.03,-0.201 0.03,-0.247C0.03,-0.299 0.043,-0.349 0.07,-0.395C0.097,-0.441 0.134,-0.477 0.18,-0.504C0.227,-0.531 0.275,-0.545 0.326,-0.545C0.357,-0.545 0.384,-0.539 0.409,-0.527C0.434,-0.515 0.459,-0.495 0.483,-0.467L0.492,-0.531ZM0.331,-0.422C0.283,-0.422 0.242,-0.405 0.208,-0.372C0.175,-0.339 0.158,-0.298 0.158,-0.25C0.158,-0.21 0.171,-0.179 0.195,-0.155C0.22,-0.131 0.253,-0.119 0.295,-0.119C0.326,-0.119 0.355,-0.126 0.382,-0.141C0.408,-0.155 0.429,-0.176 0.444,-0.203C0.46,-0.231 0.468,-0.26 0.468,-0.291C0.468,-0.329 0.455,-0.36 0.429,-0.385C0.404,-0.409 0.371,-0.422 0.331,-0.422Z" style="fill:rgb(22,136,212);fill-rule:nonzero;"/>
                </g>
                <g transform="matrix(183.717,0,0,183.717,556.728,568.855)">
                    <path d="M0.334,-0.545C0.381,-0.545 0.424,-0.534 0.463,-0.512C0.501,-0.49 0.531,-0.459 0.553,-0.419C0.574,-0.379 0.585,-0.334 0.585,-0.285C0.585,-0.202 0.556,-0.132 0.497,-0.073C0.438,-0.015 0.365,0.014 0.278,0.014C0.202,0.014 0.142,-0.009 0.097,-0.055C0.052,-0.101 0.03,-0.16 0.03,-0.234C0.03,-0.324 0.06,-0.398 0.121,-0.457C0.182,-0.515 0.253,-0.545 0.334,-0.545ZM0.325,-0.421C0.272,-0.421 0.231,-0.402 0.202,-0.364C0.174,-0.326 0.16,-0.284 0.16,-0.24C0.16,-0.2 0.171,-0.168 0.195,-0.144C0.218,-0.12 0.249,-0.107 0.287,-0.107C0.342,-0.107 0.384,-0.126 0.413,-0.163C0.442,-0.2 0.456,-0.242 0.456,-0.29C0.456,-0.329 0.444,-0.36 0.419,-0.385C0.395,-0.409 0.364,-0.421 0.325,-0.421Z" style="fill:rgb(22,136,212);fill-rule:nonzero;"/>
                </g>
            </g>
        </g>
    </g>
</svg>
