<?xml version="1.0" encoding="utf-8"?>
<svg version="1.1" width="900px" height="900px" viewBox="0 0 900 900" xmlns="http://www.w3.org/2000/svg">
  <defs/>
  <rect width="900" height="900" fill="#ffffff" style=""/>
  <path d="M 296.145 796.545 C 270.997 796.545 248.993 791.115 230.133 780.256 C 211.272 769.397 196.698 754.023 186.41 734.133 C 176.123 714.301 170.979 690.954 170.979 664.092 C 170.979 634.658 177.266 608.51 189.839 585.649 C 202.413 562.787 220.131 544.984 242.992 532.239 C 265.854 519.551 292.001 513.207 321.435 513.207 C 332.009 513.207 343.44 513.978 355.728 515.521 C 368.016 517.122 378.589 518.693 387.448 520.236 C 396.307 521.837 402.022 522.923 404.594 523.494 L 406.308 526.066 C 405.737 527.781 404.737 531.924 403.308 538.497 C 401.879 545.07 400.364 553.643 398.764 564.216 C 397.221 574.789 396.021 585.934 395.163 597.651 L 375.017 599.365 C 375.303 597.937 375.588 595.136 375.874 590.964 C 376.16 586.849 376.303 581.934 376.303 576.218 C 376.303 563.073 371.216 553.5 361.043 547.499 C 350.927 541.498 334.438 538.497 311.576 538.497 C 278.999 538.497 253.623 548.27 235.448 567.817 C 217.33 587.42 208.272 614.94 208.272 650.375 C 208.272 675.237 212.272 697.098 220.274 715.959 C 228.275 734.819 239.706 749.393 254.566 759.681 C 269.426 769.969 286.572 775.112 306.004 775.112 C 316.292 775.112 325.722 773.884 334.295 771.426 C 342.868 769.026 350.069 766.397 355.899 763.539 C 361.786 760.681 364.729 759.109 364.729 758.824 L 364.729 706.528 C 364.729 696.812 363.215 690.525 360.186 687.668 C 357.214 684.81 350.869 683.381 341.153 683.381 L 311.576 683.381 L 310.719 681.666 L 314.577 660.234 C 318.006 660.52 325.293 660.863 336.438 661.263 C 347.583 661.72 358.442 661.949 369.016 661.949 C 376.731 661.949 384.304 661.663 391.734 661.091 C 399.164 660.52 403.879 660.091 405.88 659.805 L 407.594 669.236 C 402.451 673.522 398.936 680.295 397.05 689.554 C 395.221 698.87 394.306 714.101 394.306 735.248 C 394.306 751.822 395.306 764.396 397.307 772.969 L 394.735 776.827 C 394.735 777.113 389.648 779.027 379.475 782.571 C 369.359 786.172 356.928 789.401 342.182 792.258 C 327.494 795.116 312.148 796.545 296.145 796.545 Z M 575.626 796.545 C 552.478 796.545 531.903 790.973 513.9 779.828 C 495.896 768.683 481.894 753.023 471.892 732.847 C 461.89 712.729 456.889 689.811 456.889 664.092 C 456.889 636.087 463.09 610.568 475.493 587.535 C 487.952 564.559 504.955 546.413 526.502 533.096 C 548.106 519.836 571.911 513.207 597.915 513.207 C 621.634 513.207 642.638 518.779 660.927 529.924 C 679.216 541.069 693.505 556.643 703.792 576.647 C 714.08 596.651 719.224 619.512 719.224 645.231 C 719.224 673.236 712.851 698.813 700.106 721.96 C 687.418 745.107 670.129 763.31 648.239 776.57 C 626.406 789.887 602.202 796.545 575.626 796.545 Z M 588.914 774.684 C 606.917 774.684 622.92 769.969 636.923 760.538 C 650.925 751.108 661.785 737.963 669.5 721.102 C 677.216 704.242 681.074 684.953 681.074 663.234 C 681.074 638.944 676.93 617.426 668.643 598.68 C 660.356 579.99 648.839 565.359 634.094 554.786 C 619.405 544.212 602.488 538.926 583.341 538.926 C 565.91 538.926 550.392 543.641 536.79 553.071 C 523.244 562.501 512.671 575.647 505.07 592.507 C 497.525 609.367 493.753 628.657 493.753 650.375 C 493.753 674.665 497.754 696.155 505.755 714.844 C 513.757 733.59 524.959 748.25 539.362 758.824 C 553.822 769.397 570.339 774.684 588.914 774.684 Z" opacity="1" class="wordmark-text-0" data-fill-palette-color="primary" id="path-1" style="fill: rgb(108, 212, 129);"/>
  <svg viewBox="0 0 396 155" data-background-color="#444444" preserveAspectRatio="xMidYMid meet" height="587" width="1500" xmlns="http://www.w3.org/2000/svg" transform="matrix(3.7870969772338867, 0, 0, 3.7870969772338867, -214.17087549664987, 591.2195748797749)" style="">
    <g id="g-1" transform="matrix(1, 0, 0, 1, -3.688291, 24.460139)">
      <svg viewBox="0 0 395.52 154.00480283937128" height="154.00480283937128" width="395.52">
        <g>
          <svg viewBox="0 0 397.49759999999986 154.7748268535681" height="154.00480283937128" width="395.52">
            <g>
              <svg viewBox="0 0 397.49759999999986 154.7748268535681" height="154.7748268535681" width="397.49759999999986">
                <g id="g-2">
                  <svg viewBox="0 0 397.49759999999986 154.7748268535681" height="154.7748268535681" width="397.49759999999986" id="svg-1">
                    <g/>
                    <g transform="matrix(1,0,0,1,0.9887999999999693,0)">
                      <svg viewBox="0 0 395.5199999999999 86.33870578084554" height="86.33870578084554" width="395.5199999999999">
                        <g transform="matrix(1,0,0,1,0,0)">
                          <svg width="395.5199999999999" viewBox="-0.35 -37.1 173.84 37.95" height="86.33870578084554" data-palette-color="#ffffff">
                            <path d="M 16.888 1.951 C 16.421 0.284 15.348 -3.382 13.668 -9.049 C 11.981 -14.716 10.271 -20.266 8.538 -25.699 C 8.238 -26.666 7.721 -27.376 6.988 -27.829 C 6.255 -28.276 5.271 -28.516 4.038 -28.549 L 3.988 -28.749 L 4.288 -30.899 C 4.721 -30.899 5.505 -30.876 6.638 -30.829 C 7.771 -30.776 8.871 -30.749 9.938 -30.749 C 11.405 -30.749 12.871 -30.826 14.338 -30.979 C 15.805 -31.126 16.755 -31.232 17.188 -31.299 L 17.338 -30.949 L 17.138 -28.999 C 15.438 -28.866 14.298 -28.666 13.718 -28.399 C 13.131 -28.132 12.838 -27.649 12.838 -26.949 C 12.838 -26.382 13.298 -24.376 14.218 -20.929 C 15.131 -17.476 16.081 -14.016 17.068 -10.549 C 18.048 -7.082 18.688 -4.816 18.988 -3.749 L 19.288 -3.749 L 26.338 -22.949 L 25.438 -25.699 C 25.105 -26.666 24.588 -27.366 23.888 -27.799 C 23.188 -28.232 22.205 -28.482 20.938 -28.549 L 20.838 -28.749 L 21.188 -30.899 C 21.621 -30.899 22.405 -30.876 23.538 -30.829 C 24.671 -30.776 25.771 -30.749 26.838 -30.749 C 28.105 -30.749 29.515 -30.826 31.068 -30.979 C 32.615 -31.126 33.621 -31.232 34.088 -31.299 L 34.238 -30.949 L 34.038 -28.999 C 32.305 -28.866 31.148 -28.666 30.568 -28.399 C 29.981 -28.132 29.688 -27.632 29.688 -26.899 C 29.688 -26.199 30.555 -22.732 32.288 -16.499 C 34.021 -10.266 35.221 -6.016 35.888 -3.749 L 36.188 -3.749 C 36.255 -3.949 36.331 -4.159 36.418 -4.379 C 36.498 -4.592 36.588 -4.849 36.688 -5.149 C 41.755 -18.749 44.288 -26.032 44.288 -26.999 C 44.288 -27.632 44.021 -28.082 43.488 -28.349 C 42.955 -28.616 42.088 -28.749 40.888 -28.749 L 38.388 -28.749 L 38.288 -28.949 L 38.638 -31.099 C 39.071 -31.066 40.005 -30.999 41.438 -30.899 C 42.871 -30.799 44.255 -30.749 45.588 -30.749 C 46.788 -30.749 47.888 -30.766 48.888 -30.799 C 49.888 -30.832 50.555 -30.866 50.888 -30.899 L 50.538 -28.549 C 49.538 -28.482 48.838 -28.309 48.438 -28.029 C 48.038 -27.742 47.671 -27.116 47.338 -26.149 L 36.838 0.851 L 33.738 1.951 C 33.405 0.784 32.631 -1.899 31.418 -6.099 C 30.198 -10.299 28.888 -14.682 27.488 -19.249 L 27.188 -19.249 L 20.088 0.851 L 16.888 1.951 Z M 51.138 1.701 L 51.338 -0.349 C 52.338 -0.616 53.055 -1.009 53.488 -1.529 C 53.921 -2.042 54.138 -2.732 54.138 -3.599 L 54.138 -16.299 C 54.138 -18.099 53.521 -18.999 52.288 -18.999 C 52.055 -18.999 51.805 -18.976 51.538 -18.929 C 51.271 -18.876 51.105 -18.832 51.038 -18.799 L 51.238 -20.649 C 52.638 -20.849 54.078 -21.116 55.558 -21.449 C 57.045 -21.782 58.005 -21.999 58.438 -22.099 L 58.688 -21.499 C 58.388 -20.799 58.121 -18.659 57.888 -15.079 C 57.655 -11.492 57.538 -7.732 57.538 -3.799 C 57.538 -2.832 57.671 -2.126 57.938 -1.679 C 58.205 -1.226 58.655 -0.999 59.288 -0.999 C 59.655 -0.999 60.005 -1.016 60.338 -1.049 C 60.671 -1.082 60.905 -1.099 61.038 -1.099 L 61.138 -0.899 L 60.738 1.251 C 60.438 1.218 59.871 1.184 59.038 1.151 C 58.205 1.118 57.288 1.101 56.288 1.101 C 55.421 1.101 54.428 1.184 53.308 1.351 C 52.195 1.518 51.471 1.634 51.138 1.701 Z M 55.538 -27.999 C 54.771 -27.999 54.171 -28.249 53.738 -28.749 C 53.305 -29.249 53.088 -29.849 53.088 -30.549 C 53.088 -31.349 53.371 -32.042 53.938 -32.629 C 54.505 -33.209 55.205 -33.499 56.038 -33.499 C 56.805 -33.499 57.405 -33.249 57.838 -32.749 C 58.271 -32.249 58.488 -31.649 58.488 -30.949 C 58.488 -30.149 58.205 -29.459 57.638 -28.879 C 57.071 -28.292 56.371 -27.999 55.538 -27.999 Z M 64.738 -0.649 C 65.605 -0.782 66.221 -1.026 66.588 -1.379 C 66.955 -1.726 67.178 -2.182 67.258 -2.749 C 67.345 -3.316 67.388 -4.282 67.388 -5.649 L 67.388 -30.199 C 67.388 -31.999 66.771 -32.899 65.538 -32.899 C 65.305 -32.899 65.055 -32.876 64.788 -32.829 C 64.521 -32.776 64.355 -32.732 64.288 -32.699 C 64.288 -32.899 64.321 -33.199 64.388 -33.599 L 64.488 -34.549 C 65.921 -34.749 67.405 -35.016 68.938 -35.349 C 70.471 -35.682 71.455 -35.899 71.888 -35.999 L 72.188 -35.349 C 71.821 -34.782 71.495 -31.249 71.208 -24.749 C 70.928 -18.249 70.788 -11.266 70.788 -3.799 C 70.788 -2.766 70.921 -2.042 71.188 -1.629 C 71.455 -1.209 71.921 -0.999 72.588 -0.999 C 72.955 -0.999 73.305 -1.016 73.638 -1.049 C 73.971 -1.082 74.205 -1.099 74.338 -1.099 L 74.438 -0.899 L 73.988 1.251 C 73.688 1.218 73.105 1.184 72.238 1.151 C 71.371 1.118 70.438 1.101 69.438 1.101 C 68.571 1.101 67.611 1.144 66.558 1.231 C 65.511 1.311 64.821 1.368 64.488 1.401 L 64.738 -0.649 Z M 72.038 -10.599 L 72.138 -11.399 L 78.088 -17.099 C 78.555 -17.532 78.871 -17.876 79.038 -18.129 C 79.205 -18.376 79.288 -18.616 79.288 -18.849 C 79.288 -19.216 79.071 -19.482 78.638 -19.649 C 78.205 -19.816 77.505 -19.899 76.538 -19.899 L 76.388 -20.149 L 76.838 -21.599 C 77.205 -21.599 77.878 -21.582 78.858 -21.549 C 79.845 -21.516 80.855 -21.499 81.888 -21.499 C 82.688 -21.499 83.605 -21.542 84.638 -21.629 C 85.671 -21.709 86.338 -21.766 86.638 -21.799 L 86.788 -21.549 L 86.388 -19.999 C 85.021 -19.599 83.645 -18.832 82.258 -17.699 C 80.878 -16.566 79.221 -15.032 77.288 -13.099 C 77.288 -13.099 76.771 -12.582 75.738 -11.549 L 80.988 -4.799 C 82.121 -3.332 83.155 -2.282 84.088 -1.649 C 85.021 -1.016 86.005 -0.699 87.038 -0.699 L 87.188 -0.449 L 86.888 1.001 C 86.588 1.101 85.971 1.261 85.038 1.481 C 84.105 1.694 83.488 1.801 83.188 1.801 C 82.688 1.801 82.105 1.634 81.438 1.301 C 80.938 1.034 80.428 0.624 79.908 0.071 C 79.395 -0.476 78.738 -1.316 77.938 -2.449 L 72.038 -10.599 Z M 90.078 1.701 L 90.278 -0.349 C 91.278 -0.616 91.995 -1.009 92.428 -1.529 C 92.861 -2.042 93.078 -2.732 93.078 -3.599 L 93.078 -16.299 C 93.078 -18.099 92.461 -18.999 91.228 -18.999 C 90.995 -18.999 90.745 -18.976 90.478 -18.929 C 90.211 -18.876 90.045 -18.832 89.978 -18.799 L 90.178 -20.649 C 91.578 -20.849 93.021 -21.116 94.508 -21.449 C 95.988 -21.782 96.945 -21.999 97.378 -22.099 L 97.628 -21.499 C 97.328 -20.799 97.061 -18.659 96.828 -15.079 C 96.595 -11.492 96.478 -7.732 96.478 -3.799 C 96.478 -2.832 96.611 -2.126 96.878 -1.679 C 97.145 -1.226 97.595 -0.999 98.228 -0.999 C 98.595 -0.999 98.945 -1.016 99.278 -1.049 C 99.611 -1.082 99.845 -1.099 99.978 -1.099 L 100.078 -0.899 L 99.678 1.251 C 99.378 1.218 98.811 1.184 97.978 1.151 C 97.145 1.118 96.228 1.101 95.228 1.101 C 94.361 1.101 93.371 1.184 92.258 1.351 C 91.138 1.518 90.411 1.634 90.078 1.701 Z M 94.478 -27.999 C 93.711 -27.999 93.111 -28.249 92.678 -28.749 C 92.245 -29.249 92.028 -29.849 92.028 -30.549 C 92.028 -31.349 92.311 -32.042 92.878 -32.629 C 93.445 -33.209 94.145 -33.499 94.978 -33.499 C 95.745 -33.499 96.345 -33.249 96.778 -32.749 C 97.211 -32.249 97.428 -31.649 97.428 -30.949 C 97.428 -30.149 97.145 -29.459 96.578 -28.879 C 96.011 -28.292 95.311 -27.999 94.478 -27.999 Z" opacity="1" fill="#000000" class="wordmark-text-0" data-fill-palette-color="primary" id="path-3"/>
                          </svg>
                        </g>
                      </svg>
                    </g>
                    <g transform="matrix(1,0,0,1,0,112.46906604503357)">
                      <svg viewBox="0 0 395.5199999999999 42.30576080853452" height="42.30576080853452" width="395.5199999999999">
                        <g transform="matrix(1,0,0,1,0,0)">
                          <svg width="395.5199999999999" viewBox="4.49 -36.01 434.78 46.51" height="42.30576080853452" data-palette-color="#00d1cd"/>
                        </g>
                      </svg>
                    </g>
                  </svg>
                </g>
              </svg>
            </g>
          </svg>
        </g>
        <defs/>
      </svg>
    </g>
  </svg>
</svg>